<svg viewbox="0 0 24 24" fill="none" xmlns="http://www.w3.org/2000/svg"><path fill="#fff" d="M0 0h24v24H0z"/><path d="M18 6a2 2 0 1 0-1.562-.75l-1.853 2.47A4.977 4.977 0 0 0 12 7a4.987 4.987 0 0 0-3.68 1.615L5.85 6.762a2 2 0 1 0-.6.8l2.47 1.853A4.977 4.977 0 0 0 7 12c0 .946.263 1.831.72 2.585l-2.47 1.853a2 2 0 1 0 .6.8l2.47-1.853A4.987 4.987 0 0 0 12 17c.978 0 1.89-.28 2.66-.765l2.756 3.543a2 2 0 1 0 .79-.614l-2.757-3.544a4.987 4.987 0 0 0 1.526-3.12h2.088a2 2 0 1 0 0-1h-2.088a4.988 4.988 0 0 0-1.59-3.18l1.853-2.47c.235.097.492.15.762.15z" fill="#00ADEF"/></svg>