<svg
    fill="none"
    viewBox="0 0 16 13"
    xmlns="http://www.w3.org/2000/svg"
>
    <path
        opacity="0.8"
        d="M10.8719 1.22491C10.4439 0.743327 9.70645 0.699952 9.22488 1.12803C8.7433 1.5561 8.69992 2.29352 9.128 2.77509L10.8719 1.22491ZM14 6.5L14.872 7.27509C15.2649 6.83306 15.2649 6.16694 14.872 5.72491L14 6.5ZM9.128 10.2249C8.69992 10.7065 8.7433 11.4439 9.22488 11.872C9.70645 12.3 10.4439 12.2567 10.8719 11.7751L9.128 10.2249ZM2 5.33333C1.35567 5.33333 0.833333 5.85567 0.833333 6.5C0.833333 7.14433 1.35567 7.66667 2 7.66667V5.33333ZM9.128 2.77509L13.128 7.27509L14.872 5.72491L10.8719 1.22491L9.128 2.77509ZM13.128 5.72491L9.128 10.2249L10.8719 11.7751L14.872 7.27509L13.128 5.72491ZM14 5.33333H2V7.66667H14V5.33333Z"
        fill="#00ADEF"
    />
</svg>