<svg width="1093" height="1024" viewBox="0 0 1093 1024" fill="none" xmlns="http://www.w3.org/2000/svg">
<g clip-path="url(#clip0)">
<path d="M1093 991.353C993.631 983.7 934.913 908.937 808.44 899.084C704.889 891.02 665.882 957.468 544.972 933.153C478.096 919.705 420.484 813.468 303.286 838.762L270.148 776.546C314.229 687.025 292.994 611.525 370.348 546.5C413.823 509.957 536.91 468.729 571.071 423.865C636.749 337.61 531.952 217.748 572.505 118.044C593.98 65.248 631.896 28.088 678.419 -0.0240479L1093 -4.78514e-05V991.353Z" fill="url(#paint0_radial)"/>
<path d="M204.513 919.648H193.625V878.523H204.513V919.648ZM199.069 969.354L195.744 979.392L170.657 971.604L173.982 961.566L199.069 969.354Z" fill="#000021"/>
<path d="M199.069 969.354L202.394 979.392L227.48 971.604L224.155 961.566L199.069 969.354Z" fill="#000021"/>
<path d="M199.157 1025.3H198.982C196.022 1025.3 193.624 1022.9 193.624 1019.94V919.649H204.514V1019.94C204.514 1022.9 202.116 1025.3 199.157 1025.3Z" fill="#000021"/>
<path d="M157.282 1015.46L157.245 1015.45C154.381 1014.56 152.805 1011.59 153.723 1008.82L183.219 919.806L193.624 923.037L164.128 1012.05C163.21 1014.82 160.146 1016.35 157.282 1015.46ZM240.856 1015.46L240.893 1015.45C243.757 1014.56 245.333 1011.59 244.415 1008.82L214.919 919.806L204.514 923.037L234.01 1012.05C234.928 1014.82 237.992 1016.35 240.856 1015.46Z" fill="#000021"/>
<path d="M172.843 908.937H225.296V929.387H172.843V908.937Z" fill="#000021"/>
<path d="M270.147 776.547C287.897 767.689 309.703 774.435 318.856 791.617C328.006 808.797 321.035 829.902 303.285 838.762L270.147 776.547Z" fill="#F7CC4E"/>
<path d="M278.741 848.053L156.617 908.996L125.968 851.452L248.091 790.508L278.741 848.053ZM133.363 910.599L122.855 915.841L100.621 874.1L111.129 868.856L133.363 910.599Z" fill="#B9A1E6"/>
<path d="M307.842 847.316L284.541 858.944L242.29 779.618L265.591 767.991L307.842 847.316Z" fill="#FC7F79"/>
<path d="M100.758 919.617L90.2501 924.859L74.1211 894.578L84.6291 889.334L100.758 919.617Z" fill="#B9A1E6"/>
<path d="M162.417 919.886L143.373 929.39L101.12 850.067L120.166 840.562L162.417 919.886ZM127.063 923.743L108.019 933.248L77.3691 875.704L96.4131 866.201L127.063 923.743ZM93.3021 930.591L76.8821 938.785L54.649 897.041L71.069 888.848L93.3021 930.591Z" fill="#D9E9CE"/>
<path d="M238.882 830.411L164.888 867.335L159.334 856.908L233.328 819.984L238.882 830.411Z" fill="#34313E"/>
<path d="M1118.29 299.465C1148.19 344.215 1136.15 404.727 1091.4 434.63C1046.66 464.53 986.14 452.492 956.24 407.744C926.34 362.995 938.376 302.482 983.126 272.582C1027.87 242.679 1088.39 254.718 1118.29 299.465Z" fill="#38CEE3"/>
<path d="M1198.34 343.331L1069.4 429.486C1064.84 432.535 1058.66 431.309 1055.61 426.743C1052.56 422.178 1053.79 416.005 1058.36 412.955L1187.29 326.801C1191.86 323.749 1198.03 324.978 1201.08 329.542C1204.13 334.109 1202.9 340.28 1198.34 343.331ZM1067.33 257.913L938.39 344.068C933.826 347.117 927.65 345.891 924.601 341.324C921.552 336.76 922.78 330.586 927.344 327.537L1056.28 241.382C1060.85 238.331 1067.02 239.559 1070.07 244.124C1073.12 248.688 1071.89 254.861 1067.33 257.913ZM1132.75 300.675L1003.82 386.83C999.252 389.88 993.076 388.653 990.027 384.087C986.978 379.522 988.206 373.349 992.77 370.3L1121.71 284.145C1126.27 281.093 1132.44 282.322 1135.5 286.886C1138.55 291.451 1137.32 297.624 1132.75 300.675ZM1057.13 307.969L928.191 394.123C923.624 397.173 917.448 395.947 914.401 391.38C911.35 386.816 912.578 380.642 917.142 377.593L1046.08 291.438C1050.65 288.387 1056.82 289.615 1059.87 294.18C1062.92 298.746 1061.69 304.917 1057.13 307.969ZM1148.6 333.33L976.966 448.01C972.402 451.059 966.229 449.831 963.179 445.268C960.13 440.702 961.358 434.529 965.923 431.479L1137.55 316.799C1142.11 313.748 1148.29 314.976 1151.34 319.541C1154.39 324.105 1153.16 330.278 1148.6 333.33Z" fill="#00ACC3"/>
<path d="M792.67 613.137C789.898 640.733 765.282 660.859 737.684 658.088C710.085 655.318 689.961 630.699 692.729 603.101C695.5 575.505 720.121 555.378 747.717 558.15C775.316 560.92 795.442 585.539 792.67 613.137Z" fill="white"/>
<path d="M810.137 656.816L730.617 648.833C729.939 648.777 729.279 648.586 728.675 648.272C728.072 647.958 727.537 647.527 727.102 647.004C726.666 646.481 726.34 645.877 726.141 645.226C725.942 644.576 725.874 643.892 725.942 643.215C726.01 642.538 726.213 641.881 726.537 641.283C726.862 640.685 727.302 640.158 727.833 639.732C728.363 639.306 728.974 638.99 729.628 638.803C730.282 638.615 730.966 638.56 731.642 638.64L811.16 646.623C812.512 646.759 813.754 647.426 814.614 648.477C815.474 649.529 815.881 650.879 815.745 652.231C815.609 653.583 814.942 654.825 813.891 655.685C812.839 656.545 811.489 656.952 810.137 656.816ZM786.016 579.907L706.496 571.924C705.815 571.871 705.152 571.683 704.546 571.37C703.939 571.057 703.401 570.626 702.963 570.102C702.525 569.579 702.196 568.973 701.996 568.32C701.795 567.668 701.727 566.982 701.795 566.303C701.864 565.624 702.067 564.965 702.393 564.365C702.72 563.766 703.163 563.238 703.696 562.812C704.229 562.386 704.843 562.071 705.499 561.885C706.156 561.699 706.844 561.646 707.521 561.73L787.042 569.714C788.394 569.85 789.636 570.517 790.496 571.569C791.355 572.621 791.762 573.972 791.626 575.323C791.489 576.675 790.822 577.917 789.77 578.777C788.718 579.637 787.368 580.043 786.016 579.907ZM798.029 618.359L718.509 610.375C717.157 610.239 715.914 609.571 715.054 608.519C714.194 607.467 713.787 606.116 713.922 604.764C713.989 604.094 714.187 603.445 714.506 602.852C714.824 602.259 715.256 601.735 715.777 601.309C716.298 600.883 716.898 600.565 717.542 600.371C718.186 600.177 718.863 600.112 719.532 600.18L799.052 608.163C799.721 608.23 800.371 608.428 800.963 608.746C801.556 609.064 802.08 609.496 802.506 610.017C802.931 610.537 803.25 611.137 803.444 611.781C803.638 612.425 803.703 613.101 803.636 613.77C803.569 614.439 803.371 615.089 803.053 615.682C802.735 616.275 802.304 616.8 801.783 617.226C801.262 617.652 800.663 617.971 800.019 618.166C799.375 618.36 798.699 618.426 798.029 618.359ZM765.555 596.475L686.034 588.492C684.682 588.356 683.44 587.688 682.58 586.636C681.72 585.584 681.313 584.234 681.448 582.882C681.585 581.53 682.253 580.287 683.305 579.427C684.357 578.567 685.708 578.161 687.06 578.296L766.58 586.279C767.921 586.429 769.149 587.101 769.997 588.15C770.845 589.2 771.245 590.541 771.11 591.884C770.975 593.226 770.316 594.462 769.276 595.321C768.236 596.181 766.899 596.595 765.555 596.475ZM793.629 636.538L687.778 625.912C686.426 625.775 685.185 625.107 684.325 624.055C683.465 623.003 683.058 621.653 683.192 620.301C683.329 618.949 683.997 617.707 685.049 616.847C686.101 615.987 687.452 615.581 688.804 615.717L794.652 626.343C795.321 626.41 795.971 626.608 796.564 626.926C797.156 627.245 797.681 627.677 798.106 628.198C798.532 628.718 798.851 629.318 799.045 629.962C799.239 630.607 799.304 631.283 799.236 631.952C799.169 632.621 798.971 633.271 798.653 633.863C798.335 634.456 797.903 634.98 797.382 635.406C796.862 635.832 796.262 636.151 795.618 636.345C794.974 636.54 794.298 636.605 793.629 636.538Z" fill="#FFD641"/>
<path d="M698.004 812.428C676.035 845.924 631.071 855.269 597.575 833.3C564.075 811.33 554.732 766.367 576.701 732.866C598.672 699.37 643.636 690.027 677.132 711.996C710.628 733.964 719.976 778.93 698.004 812.428Z" fill="#B9A1E6"/>
<path d="M730.111 762.321C725.726 774.446 712.341 780.722 700.215 776.337C688.088 771.954 681.812 758.569 686.197 746.441C690.58 734.316 703.964 728.04 716.092 732.423C728.218 736.808 734.496 750.193 730.111 762.321ZM585.308 797.025C586.39 814.105 573.42 828.83 556.339 829.909C539.257 830.989 524.535 818.02 523.455 800.938C522.373 783.859 535.345 769.134 552.424 768.054C569.505 766.972 584.228 779.944 585.308 797.025Z" fill="#ACCBAE"/>
<path d="M761.277 268.753C756.52 285.194 739.336 294.666 722.895 289.909C706.454 285.153 696.984 267.968 701.741 251.528C706.496 235.087 723.68 225.615 740.121 230.371C756.562 235.128 766.033 252.312 761.277 268.753ZM1065.68 720.001C1060.92 736.442 1043.74 745.914 1027.3 741.157C1010.86 736.4 1001.39 719.218 1006.15 702.775C1010.9 686.336 1028.09 676.864 1044.53 681.619C1060.97 686.376 1070.44 703.56 1065.68 720.001Z" fill="#38CEE3"/>
<path d="M912.36 420.293C915.604 430.912 909.628 442.15 899.01 445.397C888.391 448.641 877.153 442.664 873.904 432.045C870.66 421.427 876.637 410.187 887.256 406.943C897.876 403.696 909.114 409.673 912.36 420.293Z" fill="#FFD641"/>
<path d="M982.944 624.276C983.266 629.371 979.396 633.765 974.301 634.087C969.205 634.41 964.811 630.539 964.49 625.443C964.167 620.348 968.038 615.954 973.134 615.632C974.346 615.555 975.561 615.718 976.709 616.111C977.858 616.504 978.918 617.12 979.829 617.922C980.74 618.725 981.484 619.699 982.019 620.789C982.553 621.88 982.867 623.064 982.944 624.276ZM675.525 65.027C675.579 65.8837 675.464 66.7428 675.186 67.555C674.908 68.3673 674.473 69.1169 673.906 69.761C673.338 70.4051 672.65 70.9311 671.879 71.309C671.108 71.6869 670.27 71.9093 669.414 71.9635C668.557 72.0177 667.698 71.9026 666.885 71.6248C666.073 71.3469 665.324 70.9119 664.68 70.3443C664.035 69.7768 663.509 69.088 663.131 68.3172C662.754 67.5464 662.531 66.7087 662.477 65.852C662.368 64.1217 662.95 62.4189 664.096 61.118C665.242 59.8172 666.858 59.0249 668.589 58.9155C670.319 58.8061 672.022 59.3885 673.323 60.5347C674.623 61.6808 675.416 63.2967 675.525 65.027ZM893.779 332.827C893.833 333.684 893.718 334.543 893.44 335.355C893.163 336.167 892.728 336.916 892.161 337.56C891.593 338.204 890.904 338.73 890.134 339.108C889.363 339.486 888.526 339.709 887.669 339.763C886.812 339.817 885.953 339.702 885.141 339.425C884.329 339.147 883.58 338.712 882.936 338.145C882.291 337.577 881.766 336.888 881.388 336.118C881.01 335.347 880.787 334.51 880.733 333.653C880.623 331.923 881.206 330.22 882.352 328.92C883.497 327.619 885.113 326.827 886.843 326.717C888.573 326.607 890.276 327.19 891.576 328.336C892.877 329.481 893.669 331.097 893.779 332.827ZM420.221 798.562C420.332 800.318 419.741 802.047 418.578 803.367C417.415 804.688 415.775 805.492 414.019 805.604C412.283 805.681 410.585 805.073 409.292 803.911C407.999 802.75 407.213 801.128 407.103 799.393C406.993 797.658 407.568 795.95 408.705 794.635C409.841 793.319 411.448 792.502 413.18 792.359C414.05 792.304 414.922 792.421 415.746 792.703C416.571 792.985 417.331 793.426 417.985 794.002C418.639 794.578 419.173 795.277 419.557 796.06C419.94 796.842 420.166 797.692 420.221 798.562Z" fill="white"/>
<path d="M509.43 897.763C510.16 909.296 501.403 919.238 489.867 919.968C478.334 920.698 468.394 911.939 467.664 900.406C466.934 888.875 475.691 878.933 487.224 878.203C498.76 877.472 508.7 886.232 509.43 897.763Z" fill="#FFBD00"/>
<path d="M397.747 597.92C398.082 603.217 394.059 607.783 388.763 608.118C383.464 608.452 378.897 604.432 378.563 599.133C378.228 593.837 382.251 589.27 387.547 588.936C392.846 588.599 397.413 592.621 397.747 597.92Z" fill="#38CEE3"/>
<path d="M919.262 272.078C919.581 277.104 915.765 281.436 910.739 281.756C905.713 282.072 901.379 278.256 901.064 273.23C900.988 272.035 901.148 270.837 901.535 269.704C901.923 268.571 902.529 267.525 903.321 266.626C904.112 265.728 905.073 264.994 906.148 264.467C907.223 263.94 908.392 263.63 909.587 263.555C914.613 263.236 918.943 267.052 919.262 272.078Z" fill="#FFD641"/>
<path d="M585.033 577.742C585.094 577.133 585.034 576.518 584.856 575.933C584.679 575.347 584.388 574.802 584.001 574.329C583.613 573.856 583.136 573.464 582.596 573.175C582.057 572.887 581.466 572.707 580.857 572.647L570.579 571.624C569.35 571.502 568.219 570.896 567.436 569.94C566.653 568.985 566.282 567.757 566.405 566.528C566.527 565.298 567.132 564.168 568.088 563.385C569.044 562.602 570.272 562.231 571.501 562.353L607.33 565.916C608.56 566.038 609.787 565.666 610.743 564.883C611.699 564.101 612.305 562.97 612.428 561.741C612.549 560.511 612.178 559.284 611.395 558.328C610.612 557.372 609.482 556.766 608.252 556.643L592.668 555.095C591.439 554.971 590.31 554.365 589.527 553.41C588.745 552.454 588.374 551.227 588.495 549.998C588.555 549.389 588.735 548.798 589.024 548.259C589.312 547.719 589.704 547.242 590.178 546.854C590.651 546.466 591.196 546.175 591.782 545.998C592.367 545.821 592.982 545.761 593.591 545.822L595.2 545.982C596.418 546.083 597.628 545.701 598.567 544.918C599.506 544.136 600.1 543.016 600.221 541.799C600.342 540.582 599.98 539.367 599.214 538.415C598.447 537.463 597.336 536.85 596.122 536.709L583.439 535.448C582.21 535.326 581.079 534.72 580.296 533.764C579.514 532.808 579.143 531.58 579.265 530.351C579.387 529.122 579.993 527.991 580.949 527.208C581.905 526.426 583.133 526.055 584.362 526.177L597.045 527.438C597.654 527.499 598.269 527.439 598.855 527.262C599.44 527.085 599.986 526.795 600.459 526.407C600.932 526.019 601.325 525.542 601.613 525.003C601.902 524.463 602.082 523.872 602.142 523.263C602.203 522.654 602.143 522.039 601.966 521.454C601.789 520.868 601.498 520.323 601.11 519.85C600.723 519.377 600.246 518.985 599.706 518.696C599.167 518.407 598.576 518.227 597.967 518.167L496.83 508.109L495.909 517.38L494.987 526.651L494.064 535.924L493.142 545.195L492.22 554.468L491.299 563.739L490.377 573.012L579.935 581.917C580.544 581.978 581.159 581.918 581.745 581.741C582.33 581.564 582.876 581.274 583.349 580.886C583.823 580.498 584.215 580.021 584.504 579.481C584.793 578.942 584.973 578.351 585.033 577.742Z" fill="white"/>
<path d="M461.152 537.332C462.934 519.409 478.909 506.326 496.83 508.108C514.753 509.892 527.838 525.865 526.054 543.788C524.273 561.711 508.297 574.794 490.377 573.012C472.454 571.229 459.37 555.255 461.152 537.332Z" fill="#FFB922"/>
<path d="M478.186 539.026C479.032 530.512 486.622 524.295 495.137 525.141C503.651 525.989 509.868 533.579 509.02 542.093C508.174 550.608 500.586 556.825 492.07 555.977C483.555 555.131 477.338 547.541 478.186 539.026Z" fill="#FFD641"/>
<path d="M849.428 536.137C849.66 536.75 850.011 537.312 850.461 537.789C850.91 538.267 851.45 538.651 852.048 538.92C852.646 539.189 853.291 539.337 853.947 539.357C854.602 539.376 855.255 539.266 855.868 539.033L866.218 535.107C866.831 534.874 867.484 534.765 868.139 534.784C868.795 534.804 869.44 534.952 870.038 535.221C870.636 535.49 871.175 535.874 871.625 536.352C872.075 536.829 872.426 537.39 872.659 538.003C872.891 538.617 873.001 539.269 872.981 539.925C872.962 540.58 872.813 541.226 872.544 541.824C872.275 542.422 871.891 542.961 871.414 543.411C870.936 543.86 870.375 544.211 869.762 544.444L833.682 558.132C833.069 558.364 832.507 558.715 832.029 559.165C831.552 559.614 831.168 560.153 830.899 560.751C830.629 561.35 830.481 561.995 830.461 562.65C830.442 563.306 830.552 563.959 830.785 564.572C831.017 565.185 831.368 565.746 831.817 566.224C832.267 566.701 832.806 567.086 833.404 567.355C834.002 567.624 834.647 567.772 835.302 567.792C835.957 567.812 836.61 567.702 837.223 567.469L852.916 561.516C853.529 561.283 854.182 561.174 854.837 561.193C855.492 561.213 856.137 561.362 856.735 561.631C857.333 561.9 857.872 562.284 858.321 562.761C858.771 563.239 859.122 563.8 859.354 564.413C859.587 565.026 859.696 565.678 859.677 566.334C859.657 566.989 859.509 567.634 859.24 568.231C858.971 568.829 858.587 569.368 858.109 569.817C857.632 570.267 857.071 570.618 856.458 570.85L854.838 571.467C854.225 571.699 853.664 572.05 853.186 572.5C852.709 572.949 852.325 573.488 852.056 574.086C851.787 574.684 851.638 575.329 851.618 575.984C851.599 576.64 851.708 577.293 851.94 577.906C852.173 578.519 852.524 579.08 852.973 579.557C853.423 580.034 853.962 580.419 854.56 580.688C855.158 580.957 855.803 581.105 856.458 581.125C857.113 581.145 857.766 581.035 858.379 580.803L871.15 575.957C872.388 575.487 873.763 575.529 874.971 576.072C876.179 576.616 877.121 577.617 877.591 578.855C878.061 580.093 878.019 581.468 877.476 582.676C876.932 583.884 875.931 584.826 874.693 585.296L861.921 590.14C861.303 590.369 860.736 590.718 860.254 591.167C859.771 591.616 859.382 592.156 859.11 592.756C858.837 593.356 858.686 594.004 858.664 594.662C858.643 595.321 858.753 595.978 858.987 596.594C859.221 597.21 859.574 597.774 860.027 598.253C860.48 598.732 861.023 599.116 861.625 599.384C862.227 599.652 862.876 599.798 863.535 599.814C864.194 599.83 864.85 599.715 865.464 599.476L967.305 560.834L963.764 551.5L960.223 542.161L956.679 532.825L953.136 523.489L949.592 514.152L946.051 504.816L942.507 495.479L852.324 529.697C851.086 530.167 850.086 531.11 849.543 532.318C849 533.525 848.959 534.899 849.428 536.137Z" fill="#FF6464"/>
<path d="M987.585 515.759C994.432 533.807 985.353 553.988 967.306 560.835C949.258 567.684 929.077 558.605 922.23 540.555C915.382 522.508 924.46 502.326 942.508 495.48C960.555 488.633 980.736 497.712 987.585 515.759Z" fill="#000021"/>
<path d="M970.432 522.267C973.685 530.841 969.372 540.431 960.799 543.684C952.223 546.936 942.635 542.624 939.383 534.048C936.13 525.474 940.441 515.887 949.016 512.634C957.592 509.379 967.18 513.694 970.432 522.267Z" fill="#FFD641"/>
<path d="M684.344 326.017C695.042 359.819 676.31 395.895 642.508 406.595C608.704 417.292 572.631 398.562 561.93 364.76C551.232 330.955 569.964 294.88 603.766 284.182C637.57 273.483 673.643 292.215 684.344 326.017Z" fill="#FFBD00"/>
<path d="M660.623 333.524C667.174 354.228 655.704 376.322 635 382.873C614.299 389.425 592.203 377.955 585.651 357.251C579.1 336.55 590.57 314.456 611.274 307.902C631.977 301.351 654.071 312.823 660.623 333.524Z" fill="#000021"/>
<path d="M640.946 339.751C644.059 349.588 638.61 360.085 628.775 363.198C618.938 366.309 608.441 360.861 605.328 351.024C602.215 341.19 607.665 330.69 617.499 327.579C627.336 324.467 637.834 329.914 640.946 339.751Z" fill="#FFE594"/>
<path d="M914.647 778.15C909.037 799.127 887.481 811.585 866.507 805.975C845.528 800.364 833.072 778.81 838.681 757.833C844.29 736.854 865.846 724.398 886.821 730.01C907.8 735.619 920.256 757.171 914.647 778.15Z" fill="#FF6464"/>
<path d="M899.925 774.213C896.491 787.06 883.29 794.689 870.443 791.253C857.596 787.819 849.966 774.618 853.403 761.77C856.837 748.923 870.038 741.292 882.885 744.728C895.733 748.165 903.362 761.364 899.925 774.213Z" fill="#000021"/>
<path d="M887.717 770.947C886.084 777.05 879.812 780.675 873.709 779.042C867.605 777.411 863.981 771.139 865.612 765.036C867.245 758.931 873.516 755.306 879.62 756.939C885.723 758.572 889.347 764.844 887.717 770.947Z" fill="#FFE594"/>
<path d="M969.472 14.303C961.572 43.838 931.226 61.379 901.688 53.478C872.151 45.58 854.613 15.232 862.511 -14.302C870.413 -43.838 900.757 -61.378 930.294 -53.478C959.832 -45.58 977.37 -15.232 969.472 14.303Z" fill="#FF6464"/>
<path d="M948.746 8.76C943.906 26.85 925.32 37.591 907.233 32.754C889.142 27.916 878.4 9.329 883.238 -8.761C888.077 -26.85 906.663 -37.591 924.75 -32.752C942.841 -27.914 953.583 -9.329 948.746 8.76Z" fill="#000021"/>
<path d="M931.552 4.162C929.254 12.757 920.423 17.859 911.83 15.562C903.237 13.262 898.132 4.432 900.432 -4.163C902.727 -12.756 911.559 -17.86 920.154 -15.56C928.747 -13.263 933.852 -4.434 931.552 4.162Z" fill="#FFE594"/>
<path d="M1073.19 810.472C1069.08 803.014 1063.29 796.621 1056.27 791.802C1041.84 781.89 1022.93 779.029 1005.37 785.814C987.806 792.598 975.731 807.425 971.709 824.463C969.752 832.75 969.761 841.38 971.735 849.663C971.733 850.579 971.87 851.458 972.192 852.284C972.343 852.678 972.544 853.049 972.767 853.41C978.103 862.09 1003.17 860.91 1030.32 850.419C1057.48 839.933 1076.83 823.958 1074.95 813.942C1074.88 813.524 1074.76 813.115 1074.61 812.72C1074.3 811.893 1073.81 811.15 1073.19 810.472ZM994.028 882.25C1008.46 892.161 1027.37 895.022 1044.93 888.237C1062.49 881.456 1074.57 866.626 1078.59 849.589C1067.41 857.397 1053.62 864.729 1038.16 870.703C1022.7 876.673 1007.56 880.512 994.028 882.25Z" fill="#FF6464"/>
<path d="M1114.97 851.223L1033.47 882.699C1032.78 882.965 1032.05 883.093 1031.32 883.075C1030.58 883.058 1029.86 882.896 1029.19 882.598C1028.51 882.3 1027.91 881.873 1027.4 881.34C1026.89 880.808 1026.49 880.18 1026.23 879.494C1025.96 878.808 1025.84 878.077 1025.85 877.342C1025.87 876.607 1026.03 875.883 1026.33 875.21C1026.63 874.538 1027.05 873.93 1027.59 873.423C1028.12 872.915 1028.74 872.517 1029.43 872.252L1110.93 840.774C1111.62 840.508 1112.35 840.381 1113.08 840.398C1113.82 840.416 1114.54 840.578 1115.22 840.876C1115.89 841.174 1116.49 841.602 1117 842.134C1117.51 842.667 1117.91 843.295 1118.17 843.981C1118.44 844.667 1118.56 845.398 1118.55 846.133C1118.53 846.868 1118.37 847.592 1118.07 848.265C1117.77 848.937 1117.35 849.545 1116.81 850.052C1116.28 850.56 1115.66 850.958 1114.97 851.223ZM1053.47 788.123L971.97 819.6C971.282 819.876 970.546 820.012 969.805 820.001C969.064 819.99 968.332 819.832 967.653 819.536C966.973 819.24 966.359 818.812 965.846 818.277C965.333 817.742 964.931 817.11 964.664 816.419C964.397 815.728 964.27 814.99 964.29 814.249C964.31 813.508 964.477 812.779 964.782 812.103C965.086 811.427 965.521 810.818 966.063 810.312C966.604 809.805 967.24 809.412 967.935 809.153L1049.43 777.674C1050.12 777.409 1050.85 777.281 1051.58 777.299C1052.32 777.317 1053.04 777.479 1053.71 777.777C1054.39 778.075 1054.99 778.502 1055.5 779.035C1056.01 779.567 1056.41 780.195 1056.67 780.881C1056.94 781.567 1057.06 782.298 1057.05 783.033C1057.03 783.768 1056.87 784.493 1056.57 785.165C1056.27 785.838 1055.85 786.445 1055.31 786.953C1054.78 787.46 1054.16 787.858 1053.47 788.123ZM1084.17 819.692L1002.67 851.169C1001.28 851.704 999.743 851.668 998.384 851.066C997.026 850.465 995.962 849.35 995.426 847.964C994.892 846.578 994.929 845.037 995.531 843.679C996.132 842.321 997.248 841.258 998.633 840.722L1080.13 809.243C1080.82 808.978 1081.55 808.85 1082.28 808.868C1083.02 808.885 1083.74 809.048 1084.41 809.345C1085.09 809.643 1085.69 810.071 1086.2 810.604C1086.71 811.136 1087.11 811.764 1087.37 812.45C1087.64 813.136 1087.76 813.867 1087.75 814.602C1087.73 815.337 1087.57 816.062 1087.27 816.734C1086.97 817.407 1086.55 818.014 1086.01 818.522C1085.48 819.029 1084.86 819.427 1084.17 819.692ZM1041.69 814.385L960.194 845.862C959.506 846.138 958.77 846.274 958.029 846.263C957.288 846.252 956.556 846.094 955.877 845.798C955.197 845.502 954.583 845.074 954.07 844.539C953.557 844.004 953.155 843.372 952.888 842.681C952.621 841.99 952.494 841.252 952.514 840.511C952.534 839.77 952.701 839.041 953.006 838.365C953.31 837.689 953.745 837.08 954.287 836.574C954.828 836.067 955.464 835.674 956.159 835.415L1037.66 803.936C1040.54 802.821 1043.78 804.258 1044.9 807.143C1045.16 807.829 1045.29 808.561 1045.27 809.296C1045.26 810.032 1045.09 810.756 1044.79 811.429C1044.5 812.101 1044.07 812.709 1043.54 813.216C1043 813.723 1042.38 814.12 1041.69 814.385ZM1088.85 839.595L980.372 881.496C978.994 881.994 977.477 881.933 976.144 881.325C974.811 880.718 973.769 879.613 973.241 878.246C972.713 876.88 972.742 875.361 973.32 874.016C973.899 872.67 974.981 871.604 976.336 871.047L1084.82 829.148C1086.21 828.613 1087.75 828.651 1089.1 829.252C1090.46 829.853 1091.52 830.968 1092.06 832.353C1092.59 833.739 1092.56 835.281 1091.95 836.639C1091.35 837.997 1090.24 839.06 1088.85 839.595Z" fill="#FFA0A0"/>
<path d="M1056.27 791.801C1063.29 796.62 1069.08 803.014 1073.19 810.472C1073.81 811.15 1074.3 811.893 1074.62 812.719C1074.77 813.115 1074.87 813.526 1074.95 813.941C1076.83 823.957 1057.48 839.933 1030.32 850.419C1003.17 860.91 978.102 862.09 972.766 853.409C972.54 853.053 972.347 852.676 972.191 852.284C971.872 851.457 971.732 850.579 971.734 849.663C969.76 841.38 969.752 832.749 971.708 824.462C950.016 839.607 938.116 856.54 942.855 868.812C947.594 881.084 967.786 885.622 994.027 882.249C1007.56 880.512 1022.7 876.673 1038.16 870.703C1053.62 864.729 1067.41 857.397 1078.59 849.588C1100.29 834.444 1112.18 817.511 1107.44 805.239C1102.7 792.967 1082.51 788.431 1056.27 791.801Z" fill="white"/>
<path d="M904.257 171.254C906.549 160.241 906.233 148.845 903.334 137.977C897.38 115.629 880.866 96.5019 857.415 88.2069C833.964 79.9139 809.1 84.4089 790.419 98.0469C781.331 104.676 773.92 113.34 768.779 123.346C767.99 124.264 767.376 125.265 766.985 126.369C766.805 126.897 766.673 127.439 766.591 127.991C764.486 141.291 790.644 161.655 826.907 174.478C863.169 187.302 896.315 187.911 903.035 176.243C903.314 175.759 903.566 175.261 903.754 174.734C904.141 173.63 904.294 172.465 904.257 171.254ZM763.132 175.208C769.089 197.555 785.597 216.683 809.051 224.976C832.5 233.27 857.366 228.773 876.047 215.139C858.111 213.356 837.976 208.861 817.331 201.56C796.685 194.259 778.202 185.095 763.132 175.208Z" fill="#FF6464"/>
<path d="M943.12 195.452C948.913 179.065 932.559 157.153 903.335 137.977C906.234 148.846 906.55 160.242 904.257 171.255C904.292 172.464 904.142 173.631 903.752 174.733C903.56 175.257 903.32 175.763 903.035 176.243C902.612 177.769 902.139 179.28 901.617 180.775C896.554 195.089 887.449 206.815 876.047 215.139C910.831 218.595 937.325 211.838 943.12 195.452ZM766.592 127.992C766.674 127.44 766.806 126.896 766.986 126.368C767.375 125.266 767.991 124.263 768.78 123.347C773.921 113.342 781.33 104.678 790.417 98.047C755.634 94.587 729.139 101.347 723.346 117.733C717.549 134.119 733.907 156.03 763.132 175.208C759.496 161.565 759.787 146.724 764.848 132.41C765.382 130.919 765.964 129.446 766.592 127.992Z" fill="#FFD641"/>
<path d="M903.036 176.243C896.316 187.91 863.17 187.302 826.908 174.479C790.645 161.656 764.485 141.291 766.592 127.991C765.964 129.445 765.383 130.918 764.848 132.409C759.787 146.725 759.497 161.566 763.132 175.207C778.202 185.096 796.685 194.258 817.332 201.561C837.976 208.86 858.111 213.355 876.047 215.138C887.45 206.814 896.554 195.091 901.617 180.775C902.139 179.28 902.612 177.769 903.036 176.243Z" fill="#FFD641"/>
<path d="M1043.36 63.361L1042.71 72.341L1051.05 75.741C1054.76 77.255 1054.37 82.644 1050.47 83.603L1041.73 85.757L1041.07 94.737C1040.78 98.741 1035.53 100.031 1033.42 96.621L1028.67 88.97L1019.92 91.121C1016.02 92.083 1013.18 87.492 1015.77 84.423L1021.57 77.541L1016.83 69.893C1014.71 66.48 1018.19 62.353 1021.91 63.868L1030.25 67.265L1036.06 60.385C1038.65 57.317 1043.65 59.356 1043.36 63.361ZM640.316 204.583L641.882 207.206L644.859 206.529C646.19 206.227 647.126 207.801 646.23 208.824L644.219 211.124L645.784 213.747C646.481 214.919 645.277 216.296 644.022 215.76L641.215 214.558L639.204 216.857C638.305 217.881 636.622 217.159 636.745 215.804L637.02 212.761L634.213 211.559C632.961 211.023 633.127 209.198 634.454 208.896L637.433 208.218L637.711 205.176C637.831 203.82 639.619 203.414 640.316 204.583ZM320.679 712.064L325.294 715.306L329.804 711.922C331.815 710.411 334.582 712.357 333.841 714.759L332.184 720.15L336.799 723.394C338.856 724.839 337.859 728.072 335.345 728.111L329.707 728.201L328.05 733.59C327.309 735.992 323.928 736.047 323.112 733.668L321.285 728.332L315.647 728.42C313.133 728.459 312.036 725.259 314.047 723.75L318.557 720.364L316.731 715.028C315.916 712.65 318.622 710.619 320.679 712.064ZM621.911 448.558L621.502 454.183L626.726 456.307C629.057 457.256 628.81 460.631 626.368 461.232L620.892 462.583L620.485 468.208C620.304 470.715 617.018 471.526 615.692 469.391L612.716 464.599L607.24 465.95C604.799 466.551 603.013 463.679 604.635 461.757L608.272 457.444L605.295 452.657C603.968 450.519 606.15 447.933 608.478 448.882L613.7 451.009L617.338 446.696C618.957 444.776 622.092 446.051 621.911 448.558ZM763.529 837.817L767.472 841.85L772.524 839.345C774.778 838.228 777.145 840.65 775.976 842.875L773.359 847.872L777.303 851.903C779.058 853.702 777.491 856.699 775.009 856.277L769.451 855.333L766.834 860.328C765.669 862.553 762.331 861.989 761.966 859.499L761.146 853.921L755.587 852.976C753.108 852.552 752.618 849.206 754.87 848.089L759.924 845.588L759.106 840.007C758.741 837.519 761.771 836.018 763.529 837.817Z" fill="white"/>
<path d="M1050.45 494.922L1056.12 500.724L1063.39 497.123C1066.63 495.517 1070.03 498.997 1068.35 502.201L1064.59 509.387L1070.26 515.188C1072.79 517.777 1070.53 522.087 1066.97 521.48L1058.97 520.12L1055.2 527.308C1053.52 530.512 1048.73 529.695 1048.2 526.116L1047.02 518.089L1039.02 516.732C1035.46 516.124 1034.75 511.308 1037.99 509.702L1045.26 506.101L1044.08 498.074C1043.56 494.496 1047.92 492.336 1050.45 494.922ZM392.71 665.718L398.381 671.518L405.649 667.917C408.891 666.311 412.295 669.793 410.616 672.998L406.852 680.183L412.522 685.985C415.051 688.571 412.793 692.884 409.226 692.276L401.227 690.916L397.463 698.102C395.786 701.306 390.986 700.491 390.461 696.912L389.283 688.885L381.284 687.526C377.719 686.918 377.013 682.102 380.255 680.498L387.523 676.897L386.345 668.87C385.82 665.292 390.181 663.13 392.71 665.718Z" fill="#FFD641"/>
<path d="M841.8 289.698L843.892 297.535L851.993 297.968C855.605 298.16 856.864 302.862 853.827 304.83L847.02 309.243L849.112 317.08C850.043 320.576 845.96 323.223 843.151 320.943L836.851 315.834L830.044 320.248C827.007 322.215 823.228 319.148 824.528 315.771L827.442 308.201L821.14 303.09C818.331 300.81 820.078 296.267 823.691 296.46L831.792 296.893L834.706 289.32C836.007 285.945 840.867 286.203 841.8 289.698Z" fill="white"/>
<path d="M614.373 138.68L613.125 146.696L620.36 150.36C623.589 151.995 622.839 156.804 619.267 157.379L611.258 158.669L610.007 166.685C609.45 170.256 604.645 171.03 602.995 167.813L599.296 160.592L591.284 161.882C587.714 162.455 585.493 158.124 588.045 155.56L593.767 149.809L590.067 142.59C588.416 139.371 591.848 135.921 595.077 137.556L602.313 141.222L608.038 135.471C610.589 132.906 614.93 135.106 614.373 138.68Z" fill="#FFD641"/>
<path opacity="0.2" d="M633.596 737.608C633.596 748.079 625.106 756.568 614.637 756.568C604.166 756.568 595.678 748.079 595.678 737.608C595.678 727.137 604.166 718.649 614.637 718.649C625.106 718.649 633.596 727.137 633.596 737.608ZM560.532 791.484C560.532 799.021 554.422 805.133 546.885 805.133C539.347 805.133 533.238 799.021 533.238 791.484C533.238 783.948 539.347 777.836 546.885 777.836C554.422 777.836 560.532 783.948 560.532 791.484ZM712.608 750.878C712.608 756.481 708.066 761.021 702.463 761.021C696.86 761.021 692.32 756.481 692.32 750.878C692.32 745.275 696.86 740.733 702.463 740.733C708.066 740.733 712.608 745.275 712.608 750.878ZM838.549 117.544C838.549 128.014 830.058 136.503 819.59 136.503C809.119 136.503 800.63 128.014 800.63 117.544C800.63 107.073 809.119 98.584 819.59 98.584C830.058 98.584 838.549 107.073 838.549 117.544ZM1011.45 826.278C1011.45 834.146 1005.07 840.522 997.206 840.522C989.341 840.522 982.962 834.146 982.962 826.278C982.962 818.411 989.341 812.034 997.206 812.034C1005.07 812.034 1011.45 818.411 1011.45 826.278ZM1031.3 349.237C1031.3 367.82 1016.24 382.886 997.652 382.886C979.067 382.886 964.003 367.82 964.003 349.237C964.003 330.654 979.067 315.588 997.652 315.588C1016.24 315.588 1031.3 330.654 1031.3 349.237Z" fill="white"/>
<path d="M868.78 559.13L867.729 559.533L864.672 551.569L865.722 551.166L868.78 559.13ZM871.646 558.03L870.634 558.418L867.409 550.016L868.421 549.628L871.646 558.03ZM874.37 556.984L873.358 557.373L870.133 548.97L871.145 548.582L874.37 556.984ZM879.424 554.373C879.208 554.987 878.719 555.44 877.957 555.733C877.326 555.975 876.775 555.978 876.303 555.74C875.833 555.498 875.459 555.018 875.179 554.301L873.701 550.45L874.713 550.062L876.181 553.885C876.525 554.782 877.062 555.091 877.791 554.811C878.564 554.514 878.968 554.029 879.002 553.355L877.35 549.05L878.362 548.661L880.634 554.58L879.671 554.949L879.424 554.373ZM885.02 551.095C884.915 550.821 884.73 550.65 884.464 550.58C884.201 550.505 883.792 550.512 883.236 550.6C882.683 550.686 882.226 550.711 881.865 550.674C881.507 550.636 881.214 550.539 880.987 550.383C880.764 550.227 880.596 550.002 880.484 549.71C880.298 549.225 880.345 548.737 880.624 548.244C880.908 547.751 881.368 547.381 882.006 547.136C882.678 546.879 883.287 546.844 883.836 547.03C884.388 547.216 884.768 547.578 884.975 548.118L883.958 548.509C883.852 548.232 883.641 548.038 883.327 547.929C883.017 547.818 882.683 547.831 882.326 547.968C881.957 548.109 881.7 548.3 881.554 548.54C881.407 548.781 881.384 549.03 881.483 549.289C881.577 549.533 881.745 549.681 881.985 549.73C882.226 549.78 882.62 549.765 883.167 549.685C883.717 549.603 884.179 549.581 884.553 549.617C884.927 549.654 885.231 549.754 885.466 549.919C885.703 550.079 885.883 550.318 886.004 550.635C886.207 551.164 886.159 551.67 885.859 552.153C885.558 552.633 885.07 553.002 884.395 553.261C883.921 553.443 883.47 553.521 883.041 553.493C882.611 553.465 882.236 553.341 881.913 553.122C881.593 552.898 881.365 552.611 881.231 552.261L882.243 551.872C882.391 552.204 882.63 552.422 882.958 552.526C883.289 552.625 883.662 552.595 884.078 552.435C884.461 552.288 884.738 552.094 884.909 551.853C885.082 551.606 885.119 551.354 885.02 551.095ZM886.504 543.891L887.054 545.325L888.159 544.9L888.459 545.683L887.354 546.107L888.763 549.777C888.854 550.014 888.972 550.174 889.116 550.257C889.26 550.336 889.45 550.33 889.687 550.239C889.804 550.194 889.956 550.11 890.143 549.988L890.458 550.809C890.22 550.984 889.975 551.12 889.723 551.216C889.271 551.39 888.878 551.384 888.543 551.199C888.208 551.013 887.944 550.669 887.751 550.166L886.342 546.495L885.264 546.909L884.964 546.127L886.042 545.713L885.492 544.28L886.504 543.891ZM892.555 544.255C892.392 544.288 892.221 544.339 892.043 544.407C891.379 544.662 891.037 545.118 891.017 545.774L892.63 549.975L891.618 550.363L889.346 544.445L890.33 544.067L890.609 544.744C890.738 544.088 891.107 543.643 891.716 543.409C891.913 543.334 892.072 543.302 892.194 543.314L892.555 544.255ZM898.849 547.588C898.746 547.493 898.619 547.304 898.468 547.019C898.185 547.688 897.717 548.148 897.064 548.398C896.481 548.622 895.938 548.642 895.437 548.458C894.937 548.269 894.59 547.921 894.396 547.414C894.159 546.798 894.209 546.231 894.546 545.712C894.885 545.189 895.479 544.764 896.329 544.438L897.313 544.06L897.135 543.595C896.999 543.241 896.785 543.001 896.494 542.874C896.201 542.744 895.849 542.758 895.437 542.916C895.076 543.055 894.808 543.262 894.634 543.538C894.459 543.814 894.422 544.082 894.521 544.341L893.504 544.731C893.391 544.436 893.385 544.112 893.488 543.758C893.593 543.4 893.794 543.072 894.09 542.774C894.389 542.475 894.754 542.243 895.184 542.078C895.866 541.816 896.466 541.783 896.984 541.977C897.501 542.168 897.882 542.559 898.126 543.152L899.171 545.876C899.38 546.419 899.615 546.825 899.877 547.093L899.911 547.18L898.849 547.588ZM896.874 547.461C897.191 547.339 897.461 547.142 897.682 546.868C897.903 546.595 898.028 546.303 898.054 545.991L897.588 544.777L896.795 545.081C895.555 545.557 895.075 546.158 895.353 546.884C895.475 547.201 895.676 547.408 895.956 547.506C896.236 547.603 896.542 547.588 896.874 547.461ZM899.84 538.772L900.39 540.205L901.495 539.781L901.795 540.563L900.69 540.987L902.099 544.658C902.19 544.895 902.308 545.055 902.453 545.137C902.596 545.216 902.786 545.21 903.023 545.119C903.14 545.074 903.292 544.991 903.479 544.869L903.794 545.689C903.556 545.864 903.311 546 903.06 546.097C902.607 546.27 902.214 546.265 901.879 546.079C901.544 545.894 901.281 545.55 901.087 545.046L899.678 541.376L898.601 541.79L898.3 541.007L899.378 540.594L898.828 539.16L899.84 538.772ZM906.054 544.822L905.042 545.211L902.77 539.292L903.782 538.903L906.054 544.822ZM902.085 537.753C902.022 537.589 902.018 537.432 902.073 537.281C902.132 537.129 902.26 537.015 902.456 536.939C902.653 536.864 902.825 536.863 902.97 536.937C903.116 537.01 903.22 537.129 903.283 537.293C903.346 537.458 903.347 537.614 903.287 537.763C903.227 537.911 903.099 538.023 902.902 538.099C902.705 538.174 902.534 538.177 902.39 538.107C902.25 538.035 902.148 537.917 902.085 537.753ZM906.253 541.287C906.031 540.707 905.943 540.142 905.992 539.593C906.044 539.041 906.224 538.562 906.532 538.155C906.844 537.747 907.261 537.442 907.782 537.242C908.588 536.933 909.346 536.962 910.056 537.329C910.77 537.696 911.305 538.342 911.66 539.268L911.688 539.339C911.909 539.915 911.996 540.476 911.95 541.021C911.906 541.561 911.727 542.037 911.413 542.451C911.103 542.863 910.681 543.171 910.149 543.376C909.347 543.683 908.589 543.654 907.875 543.288C907.165 542.921 906.633 542.277 906.28 541.358L906.253 541.287ZM907.317 541.017C907.569 541.673 907.922 542.142 908.378 542.424C908.837 542.704 909.321 542.745 909.832 542.55C910.346 542.352 910.678 541.995 910.826 541.477C910.974 540.956 910.908 540.333 910.629 539.607C910.38 538.958 910.024 538.493 909.56 538.21C909.098 537.923 908.612 537.878 908.101 538.074C907.602 538.265 907.275 538.619 907.121 539.134C906.967 539.649 907.033 540.277 907.317 541.017ZM912.753 535.46L913.071 536.191C913.305 535.448 913.787 534.937 914.516 534.657C915.767 534.177 916.669 534.641 917.221 536.048L918.723 539.959L917.711 540.347L916.207 536.431C916.04 536.005 915.82 535.728 915.548 535.598C915.28 535.466 914.944 535.478 914.539 535.634C914.211 535.76 913.957 535.958 913.776 536.228C913.595 536.498 913.49 536.802 913.46 537.14L915.079 541.357L914.067 541.746L911.795 535.827L912.753 535.46ZM873.359 572.368L870.302 564.404L872.906 563.404C873.77 563.072 874.488 563.002 875.059 563.193C875.634 563.382 876.055 563.827 876.324 564.527C876.467 564.899 876.488 565.27 876.387 565.639C876.285 566.005 876.081 566.336 875.777 566.633C876.253 566.588 876.681 566.687 877.059 566.931C877.439 567.17 877.719 567.523 877.898 567.99C878.173 568.705 878.157 569.355 877.85 569.941C877.544 570.528 876.968 570.983 876.122 571.308L873.359 572.368ZM872.979 568.24L874.08 571.106L875.814 570.441C876.303 570.253 876.639 569.98 876.823 569.62C877.01 569.256 877.017 568.851 876.847 568.406C876.479 567.447 875.773 567.168 874.73 567.568L872.979 568.24ZM872.656 567.398L874.242 566.789C874.702 566.612 875.024 566.357 875.21 566.022C875.399 565.686 875.418 565.321 875.266 564.927C875.098 564.489 874.849 564.221 874.518 564.122C874.186 564.019 873.759 564.068 873.237 564.268L871.684 564.865L872.656 567.398ZM881.548 567.524L881.223 562.559L882.307 562.143L882.55 569.889C882.559 571.015 882.163 571.732 881.361 572.04L881.163 572.097L880.758 572.17L880.443 571.35L880.725 571.267C881.068 571.135 881.308 570.964 881.444 570.752C881.584 570.54 881.645 570.225 881.628 569.809L881.621 569.121L877.263 564.079L878.368 563.655L881.548 567.524ZM891.467 561.382L888.124 562.665L889.474 566.182L888.424 566.585L885.367 558.621L890.301 556.727L890.633 557.591L886.749 559.082L887.795 561.806L891.137 560.523L891.467 561.382ZM895.253 558.215C895.09 558.248 894.919 558.299 894.741 558.368C894.077 558.623 893.735 559.078 893.715 559.734L895.328 563.935L894.316 564.324L892.044 558.405L893.028 558.027L893.307 558.705C893.436 558.048 893.805 557.604 894.414 557.37C894.611 557.294 894.77 557.262 894.892 557.274L895.253 558.215ZM900.501 562.075C899.698 562.383 898.945 562.371 898.24 562.039C897.534 561.704 897.011 561.095 896.672 560.212L896.601 560.026C896.376 559.439 896.286 558.873 896.332 558.328C896.38 557.778 896.555 557.297 896.857 556.884C897.161 556.466 897.548 556.167 898.019 555.986C898.788 555.691 899.484 555.714 900.105 556.058C900.726 556.401 901.218 557.045 901.581 557.989L901.742 558.41L897.733 559.949C897.971 560.527 898.322 560.934 898.785 561.171C899.251 561.402 899.735 561.421 900.238 561.228C900.596 561.091 900.87 560.902 901.062 560.661C901.254 560.42 901.397 560.143 901.491 559.831L902.294 560.075C902.09 561.028 901.492 561.694 900.501 562.075ZM898.338 556.817C897.929 556.974 897.644 557.255 897.482 557.661C897.318 558.063 897.306 558.544 897.446 559.105L900.411 557.967L900.382 557.891C900.155 557.388 899.864 557.043 899.508 556.858C899.151 556.668 898.761 556.655 898.338 556.817ZM906.441 559.795C905.639 560.103 904.885 560.091 904.18 559.759C903.474 559.423 902.952 558.814 902.613 557.932L902.542 557.746C902.316 557.159 902.227 556.593 902.273 556.048C902.321 555.498 902.496 555.016 902.798 554.603C903.102 554.185 903.489 553.886 903.959 553.706C904.729 553.41 905.424 553.434 906.045 553.777C906.667 554.12 907.159 554.764 907.521 555.709L907.683 556.13L903.673 557.669C903.912 558.247 904.263 558.654 904.726 558.891C905.191 559.122 905.676 559.141 906.179 558.948C906.536 558.811 906.811 558.622 907.003 558.38C907.195 558.139 907.338 557.863 907.431 557.551L908.234 557.795C908.031 558.747 907.433 559.414 906.441 559.795ZM904.279 554.537C903.87 554.694 903.585 554.975 903.422 555.38C903.259 555.782 903.247 556.264 903.387 556.825L906.352 555.687L906.322 555.61C906.096 555.107 905.805 554.763 905.449 554.577C905.092 554.388 904.702 554.375 904.279 554.537ZM913.773 553.535C914.118 554.436 914.191 555.24 913.99 555.949C913.79 556.658 913.337 557.148 912.633 557.418C911.915 557.694 911.262 557.683 910.675 557.385L911.769 560.235L910.757 560.623L907.612 552.429L908.536 552.074L908.837 552.712C909.053 552.043 909.528 551.568 910.261 551.287C910.972 551.014 911.637 551.066 912.255 551.444C912.876 551.82 913.37 552.486 913.737 553.442L913.773 553.535ZM912.717 553.808C912.46 553.141 912.116 552.669 911.683 552.391C911.25 552.114 910.786 552.071 910.29 552.261C909.677 552.496 909.322 552.944 909.224 553.605L910.31 556.433C910.82 556.857 911.386 556.949 912.01 556.709C912.495 556.523 912.806 556.184 912.944 555.692C913.083 555.195 913.008 554.567 912.717 553.808ZM917.274 555.511L916.262 555.899L913.99 549.981L915.002 549.592L917.274 555.511ZM913.305 548.442C913.242 548.278 913.238 548.121 913.293 547.97C913.352 547.818 913.48 547.704 913.677 547.628C913.874 547.552 914.045 547.552 914.19 547.625C914.336 547.699 914.44 547.818 914.503 547.982C914.566 548.147 914.568 548.303 914.508 548.451C914.447 548.6 914.319 548.712 914.122 548.788C913.925 548.863 913.755 548.866 913.61 548.796C913.47 548.724 913.368 548.606 913.305 548.442ZM919.499 551.513L919.118 552.418L919.916 554.497L918.904 554.885L915.679 546.483L916.691 546.095L918.641 551.176L918.933 550.318L920.029 547.663L921.26 547.19L919.906 550.547L923.8 553.006L922.613 553.462L919.499 551.513Z" fill="white"/>
</g>
<defs>
<radialGradient id="paint0_radial" cx="0" cy="0" r="1" gradientUnits="userSpaceOnUse" gradientTransform="translate(1093.55 22.9527) rotate(133.525) scale(1103.44 915.866)">
<stop offset="0.144" stop-color="#14002D"/>
<stop offset="0.646" stop-color="#7535C5"/>
<stop offset="1" stop-color="#00FFFF"/>
</radialGradient>
<clipPath id="clip0">
<rect width="1093" height="1024" fill="white"/>
</clipPath>
</defs>
</svg>
