<svg width="1281" height="871" viewBox="0 0 1281 871" fill="none" xmlns="http://www.w3.org/2000/svg">
<g id="Card Bean Right">
<g id="svg front layer">
<path id="Subtract" fill-rule="evenodd" clip-rule="evenodd" d="M0 60C0 26.8629 25.2937 0 56.495 0H1252.31C1267.91 0 1280.55 13.4315 1280.55 30V786C1280.55 802.569 1267.91 816 1252.31 816H28.2475C12.6469 816 0 802.569 0 786V697.857C49.8533 766.507 141.913 738.173 231.289 710.664C307.672 687.155 382.095 664.249 426.537 703L433.599 700.5C409.925 531.33 298.06 554.712 186.878 577.952C116.942 592.57 47.2753 607.132 0 573.676V60ZM1077.17 233C1005.61 145.5 829.775 104.041 732.081 218.5C668.653 292.813 705.101 338.9 747.633 392.68C776.929 429.725 809.111 470.418 813.528 526.5C833.764 783.468 1139.79 777 1186.39 611C1233 445 1148.73 320.5 1077.17 233ZM583.256 126.829C649.638 84.8287 718.373 129.829 684.006 170.329C674.166 181.924 665.715 195.692 657.516 209.05C637.078 242.349 618.2 273.105 583.256 261.329C534.294 244.829 525.82 171.829 583.256 126.829ZM702.421 464C712.779 464 725.587 440.588 717.957 427C711.971 416.339 699.879 407.7 689.71 416.5C676.998 427.5 692.064 464 702.421 464Z" fill="#FDFFFC"/>
</g>
<g id="illustration / rocket" filter="url(#filter0_d)">
<path id="Vectorr" d="M433.872 726.653L444.297 723.504L446.272 736.773L439.572 738.796L433.872 726.653Z" fill="#535461"/>
<path id="Vector" d="M430.332 696.615L430.618 696.529C431.962 696.123 433.414 696.271 434.655 696.942C435.895 697.613 436.821 698.751 437.23 700.106L444.298 723.504L433.873 726.653L426.805 703.254C426.396 701.9 426.538 700.439 427.199 699.194C427.86 697.949 428.987 697.021 430.332 696.615Z" fill="url(#paint0_linear)"/>
<path id="Vector_2" d="M459.61 744.483C460.006 744.283 460.38 744.042 460.727 743.766C468.454 737.603 461.37 714.679 461.37 714.679L463.956 713.898C463.956 713.898 467.748 723.509 475.545 736.499C482.564 748.186 472.875 763.486 470.861 766.441C470.633 766.771 470.505 766.948 470.505 766.948C455.83 766.083 459.61 744.483 459.61 744.483Z" fill="#B2E8E1"/>
<path id="Vector_3" opacity="0.2" d="M469.423 766.839C469.77 766.887 470.125 766.925 470.496 766.947C470.496 766.947 470.62 766.77 470.851 766.44C472.865 763.485 482.555 748.184 475.535 736.498C467.738 723.507 463.956 713.897 463.956 713.897L462.501 714.337C462.501 714.337 466.285 723.95 474.09 736.938C481.078 748.57 471.503 763.79 469.423 766.839Z" fill="white"/>
<path id="Vector_4" d="M415.15 754.737C414.46 739.6 412.286 729.504 412.286 729.504L414.877 728.722C414.877 728.722 421.965 752.775 432.178 752.614C432.4 752.614 432.622 752.6 432.842 752.572C432.842 752.572 447.953 768.466 436.204 777.308C436.204 777.308 436.041 777.249 435.741 777.128C432.701 775.908 415.783 768.513 415.15 754.737Z" fill="#B2E8E1"/>
<path id="Vector_5" opacity="0.1" d="M459.61 744.483C460.005 744.282 460.38 744.042 460.726 743.765C464.663 751.06 468.05 758.638 470.859 766.437C470.632 766.767 470.504 766.944 470.504 766.944C455.829 766.083 459.61 744.483 459.61 744.483Z" fill="black"/>
<path id="Vector_6" opacity="0.1" d="M435.735 777.126C433.887 769.062 432.695 760.862 432.17 752.606C432.392 752.605 432.614 752.591 432.835 752.563C432.835 752.563 447.945 768.457 436.196 777.3C436.203 777.305 436.04 777.246 435.735 777.126Z" fill="black"/>
<path id="Vector_7" d="M432.458 748.805C432.284 744.931 432.237 740.916 432.32 736.76C432.32 736.76 436.308 728.941 452.193 730.757C452.193 730.757 454.793 734.291 458.37 740.554C466.239 754.323 478.832 781.287 478.893 812.873C478.935 822.36 477.779 831.815 475.45 841.013C475.45 841.013 465.455 834.734 455.082 820.07C444.709 805.406 433.963 782.352 432.458 748.805Z" fill="#E3E8F4"/>
<path id="Vector_8" d="M456.3 781.875C449.856 783.822 446.209 790.623 448.156 797.068C450.102 803.512 456.904 807.158 463.348 805.212C469.793 803.265 473.439 796.463 471.492 790.019C469.546 783.575 462.744 779.929 456.3 781.875Z" fill="#B2E8E1"/>
<path id="Vector_9" d="M451.547 796.037C451.074 794.47 451.055 792.8 451.494 791.223C451.932 789.646 452.809 788.226 454.023 787.127C455.237 786.029 456.737 785.298 458.35 785.019C459.963 784.741 461.622 784.926 463.134 785.553C463.873 785.861 464.566 786.27 465.193 786.767C465.475 786.989 465.742 787.228 465.993 787.484C466.971 788.481 467.693 789.701 468.096 791.038C468.116 791.105 468.136 791.17 468.155 791.235C468.647 793.018 468.556 794.911 467.894 796.637C467.231 798.364 466.034 799.833 464.476 800.829C463.88 801.205 463.241 801.509 462.574 801.734L462.326 801.809C461.239 802.138 460.098 802.25 458.968 802.138C457.839 802.026 456.742 801.692 455.741 801.156C454.74 800.62 453.854 799.892 453.135 799.014C452.415 798.135 451.876 797.124 451.547 796.037Z" fill="#41EAD4"/>
<path id="Vector_10" d="M455.084 820.069C466.408 809.732 478.903 812.875 478.903 812.875C478.942 822.362 477.782 831.817 475.451 841.013C475.451 841.013 465.456 834.734 455.084 820.069Z" fill="#B2E8E1"/>
<path id="Vector_11" d="M432.459 748.806C432.342 746.182 432.283 743.495 432.282 740.744C432.28 739.433 432.294 738.107 432.324 736.764C432.324 736.764 436.312 728.945 452.198 730.762C452.198 730.762 453.042 731.909 454.436 734.053C455.484 735.674 456.84 737.862 458.379 740.557C458.379 740.557 452.472 739.904 445.046 742.147C440.453 743.517 436.176 745.78 432.459 748.806V748.806Z" fill="#B2E8E1"/>
<path id="Vector_12" d="M432.282 740.745C432.279 739.434 432.293 738.107 432.324 736.764C432.324 736.764 436.312 728.946 452.197 730.762C452.197 730.762 453.041 731.909 454.436 734.053C454.437 734.053 438.867 734.258 432.282 740.745Z" fill="#E3E8F4"/>
<path id="Vector_13" opacity="0.2" d="M464.474 800.842L464.488 800.824L468.155 791.248C468.136 791.182 468.116 791.117 468.096 791.05C467.693 789.713 466.971 788.493 465.993 787.496L462.569 801.748L464.474 800.842Z" fill="white"/>
<path id="Vector_14" opacity="0.2" d="M460.44 794.417L463.137 785.559C463.875 785.868 464.568 786.276 465.196 786.773L461.232 794.839L460.44 794.417Z" fill="white"/>
<path id="Vector_15" opacity="0.2" d="M449.051 731.71C449.051 731.71 451.651 735.246 455.227 741.507C463.096 755.278 475.69 782.242 475.75 813.827C475.782 822.369 474.845 830.886 472.958 839.217C474.528 840.43 475.455 841.01 475.455 841.01C477.785 831.814 478.943 822.361 478.902 812.875C478.842 781.29 466.248 754.326 458.379 740.555C454.803 734.294 452.203 730.758 452.203 730.758C445.927 730.042 441.509 730.829 438.459 732.042C441.195 731.438 444.671 731.211 449.051 731.71Z" fill="white"/>
</g>
<g id="atom / icon / scroll">
<path id="Union" d="M73 647.175C73 638.338 65.8365 631.175 57 631.175C48.1635 631.175 41 638.338 41 647.175V667.175C41 676.011 48.1635 683.175 57 683.175C65.8365 683.175 73 676.011 73 667.175V647.175Z" stroke="#F8F9F9" stroke-width="4"/>
<path id="Union_2" d="M59 647.636C59 646.277 58.1046 645.175 57 645.175C55.8954 645.175 55 646.277 55 647.636V650.713C55 652.073 55.8954 653.175 57 653.175C58.1046 653.175 59 652.073 59 650.713V647.636Z" stroke="#F8F9F9" stroke-width="4"/>
</g>
</g>
<defs>
<filter id="filter0_d" x="375.428" y="654.997" width="161.537" height="219.644" filterUnits="userSpaceOnUse" color-interpolation-filters="sRGB">
<feFlood flood-opacity="0" result="BackgroundImageFix"/>
<feColorMatrix in="SourceAlpha" type="matrix" values="0 0 0 0 0 0 0 0 0 0 0 0 0 0 0 0 0 0 127 0"/>
<feOffset dy="-8"/>
<feGaussianBlur stdDeviation="16"/>
<feColorMatrix type="matrix" values="0 0 0 0 0.00392157 0 0 0 0 0.0862745 0 0 0 0 0.152941 0 0 0 0.1 0"/>
<feBlend mode="normal" in2="BackgroundImageFix" result="effect1_dropShadow"/>
<feBlend mode="normal" in="SourceGraphic" in2="effect1_dropShadow" result="shape"/>
</filter>
<linearGradient id="paint0_linear" x1="439.083" y1="725.079" x2="430.473" y2="696.572" gradientUnits="userSpaceOnUse">
<stop stop-color="#E0E0E0"/>
<stop offset="0.31" stop-color="#FCCC63"/>
<stop offset="0.77" stop-color="#F55F44"/>
</linearGradient>
</defs>
</svg>
