<svg width="119" height="150" viewBox="0 0 119 150" fill="none" xmlns="http://www.w3.org/2000/svg">
<path d="M34.2902 124.003L24.8587 118.558L33.1803 108.036L39.2414 111.536L34.2902 124.003Z" fill="#535461"/>
<path d="M14.8149 147.144L14.5565 146.995C13.3401 146.293 12.4546 145.133 12.0948 143.769C11.735 142.406 11.9304 140.952 12.638 139.726L24.8594 118.558L34.2908 124.003L22.0695 145.171C21.3619 146.397 20.2 147.293 18.8395 147.663C17.479 148.033 16.0313 147.847 14.8149 147.144Z" fill="url(#paint0_linear)"/>
<path d="M29.6724 93.035C29.2554 92.8839 28.8241 92.7757 28.3851 92.7123C18.6035 91.2972 6.73948 112.153 6.73948 112.153L4.3993 110.801C4.3993 110.801 8.8108 101.459 12.9448 86.8827C16.6604 73.7666 34.4474 70.3583 37.98 69.8042C38.3762 69.7441 38.5929 69.716 38.5929 69.716C48.0074 81.0068 29.6724 93.035 29.6724 93.035Z" fill="#B2E8E1"/>
<path opacity="0.2" d="M39.2541 70.5796C39.0517 70.2938 38.837 70.0087 38.5987 69.7238C38.5987 69.7238 38.385 69.7536 37.9858 69.812C34.4533 70.3662 16.6662 73.7744 12.9507 86.8905C8.81666 101.467 4.3995 110.802 4.3995 110.802L5.71549 111.562C5.71549 111.562 10.1344 102.223 14.261 87.6431C17.9577 74.5868 35.6077 71.1506 39.2541 70.5796Z" fill="white"/>
<path d="M67.5794 118.43C57.0157 129.294 51.1441 137.789 51.1441 137.789L48.7994 136.436C48.7994 136.436 61.4845 114.805 54.3766 107.469C54.2243 107.307 54.0621 107.155 53.8909 107.014C53.8909 107.014 55.1357 85.1183 69.6239 87.6316C69.6239 87.6316 69.6928 87.7913 69.8097 88.0925C71.0011 91.1441 77.1895 108.54 67.5794 118.43Z" fill="#B2E8E1"/>
<path opacity="0.1" d="M29.6726 93.0355C29.2557 92.8844 28.8243 92.7762 28.3853 92.7128C31.0089 84.8498 34.2155 77.1934 37.9785 69.8076C38.3747 69.7476 38.5914 69.7194 38.5914 69.7194C48.0076 81.0073 29.6726 93.0355 29.6726 93.0355Z" fill="black"/>
<path opacity="0.1" d="M69.812 88.0981C65.1978 94.9648 60.0355 101.447 54.3755 107.48C54.2232 107.319 54.0609 107.167 53.8898 107.025C53.8898 107.025 55.1346 85.1298 69.6228 87.6431C69.6217 87.6346 69.6907 87.7943 69.812 88.0981Z" fill="black"/>
<path d="M51.4077 109.872C48.7027 112.651 45.8069 115.433 42.7205 118.217C42.7205 118.217 34.2906 120.662 24.7417 107.837C24.7417 107.837 25.5389 103.523 27.6566 96.6286C32.3091 81.4676 43.3474 53.8303 66.3332 32.1674C73.221 25.6422 80.9058 20.0137 89.205 15.4157C89.205 15.4157 91.4683 27.0008 87.8779 44.6003C84.2874 62.1998 74.8354 85.8132 51.4077 109.872Z" fill="#E3E8F4"/>
<path d="M59.199 69.8551C65.0289 73.221 72.4835 71.2235 75.8494 65.3937C79.2152 59.5638 77.2178 52.1092 71.3879 48.7434C65.5581 45.3775 58.1035 47.375 54.7376 53.2048C51.3717 59.0347 53.3692 66.4893 59.199 69.8551Z" fill="#B2E8E1"/>
<path d="M72.7766 63.6273C71.9581 65.0449 70.7539 66.201 69.3041 66.961C67.8543 67.7211 66.2185 68.0538 64.5869 67.9206C62.9554 67.7874 61.3953 67.1936 60.088 66.2084C58.7807 65.2233 57.78 63.8871 57.2023 62.3555C56.9216 61.6058 56.7452 60.821 56.6783 60.0232C56.6474 59.6663 56.6392 59.3078 56.6535 58.9498C56.7108 57.554 57.1062 56.193 57.8056 54.9838C57.8405 54.9234 57.8745 54.8644 57.9086 54.8055C58.8712 53.2267 60.3142 51.9978 62.0261 51.2988C63.738 50.5998 65.6287 50.4675 67.4213 50.9212C68.1032 51.0987 68.7618 51.3563 69.3833 51.6885L69.6073 51.8178C70.591 52.385 71.4533 53.1404 72.145 54.0409C72.8367 54.9414 73.3441 55.9693 73.6385 57.066C73.9328 58.1626 74.0081 59.3066 73.8603 60.4324C73.7124 61.5582 73.3442 62.6438 72.7766 63.6273Z" fill="#41EAD4"/>
<path d="M87.8767 44.5992C72.5897 43.4186 66.3288 32.1584 66.3288 32.1584C73.2185 25.636 80.9049 20.0104 89.2053 15.4154C89.2053 15.4154 91.4687 27.0005 87.8767 44.5992Z" fill="#B2E8E1"/>
<path d="M51.4081 109.871C49.5753 111.752 47.6568 113.635 45.6526 115.518C44.6985 116.417 43.7216 117.315 42.722 118.212C42.722 118.212 34.2921 120.656 24.7432 107.832C24.7432 107.832 25.0019 106.431 25.6107 103.947C26.0753 102.073 26.7422 99.5876 27.6537 96.6202C27.6537 96.6202 31.2206 101.373 37.9391 105.252C42.0813 107.663 46.6584 109.232 51.4081 109.871V109.871Z" fill="#B2E8E1"/>
<path d="M45.6522 115.518C44.6982 116.417 43.7213 117.315 42.7216 118.212C42.7216 118.212 34.2918 120.656 24.7429 107.832C24.7429 107.832 25.0016 106.431 25.6104 103.947C25.6089 103.946 36.4157 115.156 45.6522 115.518Z" fill="#E3E8F4"/>
<path opacity="0.2" d="M67.4315 50.9132L67.4085 50.9157L57.9174 54.7967C57.8833 54.8556 57.8493 54.9146 57.8144 54.975C57.1149 56.1842 56.7196 57.5453 56.6623 58.9411L69.3965 51.6822L67.4315 50.9132Z" fill="white"/>
<path opacity="0.2" d="M65.5086 58.2526L57.2052 62.3498C56.9245 61.6 56.7481 60.8153 56.6812 60.0175L65.274 57.3862L65.5086 58.2526Z" fill="white"/>
<path opacity="0.2" d="M27.588 109.476C27.588 109.476 28.3861 105.16 30.5029 98.2676C35.1562 83.1051 46.1945 55.4678 69.1804 33.8049C75.3859 27.9354 82.2368 22.7882 89.6019 18.4621C89.4117 16.4876 89.2001 15.4144 89.2001 15.4144C80.9014 20.0101 73.2168 25.636 66.3288 32.1585C43.343 53.8214 32.3047 81.4588 27.6514 96.6212C25.5345 103.514 24.7365 107.83 24.7365 107.83C28.5103 112.895 32.1078 115.577 35.0797 116.971C32.7663 115.39 30.2218 113.011 27.588 109.476Z" fill="white"/>
<defs>
<linearGradient id="paint0_linear" x1="29.5771" y1="121.282" x2="14.6877" y2="147.071" gradientUnits="userSpaceOnUse">
<stop stop-color="#E0E0E0"/>
<stop offset="0.31" stop-color="#FCCC63"/>
<stop offset="0.77" stop-color="#F55F44"/>
</linearGradient>
</defs>
</svg>
