<svg width="1360" height="816" viewBox="0 0 1360 816" fill="none" xmlns="http://www.w3.org/2000/svg">
<path fill-rule="evenodd" clip-rule="evenodd" d="M60 0C26.8629 0 0 26.8629 0 60V786C0 802.569 13.4315 816 30 816H1330C1346.57 816 1360 802.569 1360 786V30C1360 13.4315 1346.57 0 1330 0H60ZM145.231 173.715C268.093 80.0607 444.167 154.829 502.965 254.704C561.762 354.58 627.097 493.295 548.199 647.507C469.301 801.719 148.548 748.902 174.205 492.316C179.804 436.318 153.606 390.081 129.757 347.991C95.1341 286.885 65.4633 234.52 145.231 173.715ZM52.0515 569.799C62.9593 623.218 142.517 591.21 150.595 509.546C150.617 433.744 86.5395 397.631 42.3826 429.669C10.868 452.534 23.706 486.93 37.6057 524.169C43.1817 539.109 48.9286 554.505 52.0515 569.799ZM75.3119 200.298C80.8057 215.135 63.1668 235.678 52.3507 233.675C41.5346 231.673 32.448 192.869 47.7252 184.511C59.947 177.825 71.0016 188.658 75.3119 200.298Z" fill="#FDFFFC"/>
</svg>
